<mxfile host="app.diagrams.net" agent="Mozilla/5.0 (Windows NT 10.0; Win64; x64) AppleWebKit/537.36 (KHTML, like Gecko) Chrome/136.0.0.0 Safari/537.36" version="27.0.5">
  <diagram name="Página-1" id="c0Kcf00nvTI_BQNokmoE">
    <mxGraphModel dx="1426" dy="777" grid="1" gridSize="10" guides="1" tooltips="1" connect="1" arrows="1" fold="1" page="1" pageScale="1" pageWidth="827" pageHeight="1169" math="0" shadow="0">
      <root>
        <mxCell id="0" />
        <mxCell id="1" parent="0" />
        <mxCell id="3fximELfKhpogjR838MC-11" style="edgeStyle=orthogonalEdgeStyle;rounded=0;orthogonalLoop=1;jettySize=auto;html=1;" edge="1" parent="1" source="3fximELfKhpogjR838MC-1" target="3fximELfKhpogjR838MC-2">
          <mxGeometry relative="1" as="geometry" />
        </mxCell>
        <mxCell id="3fximELfKhpogjR838MC-1" value="Início" style="ellipse;whiteSpace=wrap;html=1;" vertex="1" parent="1">
          <mxGeometry x="90" y="70" width="120" height="80" as="geometry" />
        </mxCell>
        <mxCell id="3fximELfKhpogjR838MC-12" style="edgeStyle=orthogonalEdgeStyle;rounded=0;orthogonalLoop=1;jettySize=auto;html=1;" edge="1" parent="1" source="3fximELfKhpogjR838MC-2" target="3fximELfKhpogjR838MC-3">
          <mxGeometry relative="1" as="geometry" />
        </mxCell>
        <mxCell id="3fximELfKhpogjR838MC-2" value="Cliente preenche formulário" style="rounded=0;whiteSpace=wrap;html=1;" vertex="1" parent="1">
          <mxGeometry x="90" y="190" width="120" height="60" as="geometry" />
        </mxCell>
        <mxCell id="3fximELfKhpogjR838MC-13" style="edgeStyle=orthogonalEdgeStyle;rounded=0;orthogonalLoop=1;jettySize=auto;html=1;" edge="1" parent="1" source="3fximELfKhpogjR838MC-3" target="3fximELfKhpogjR838MC-4">
          <mxGeometry relative="1" as="geometry" />
        </mxCell>
        <mxCell id="3fximELfKhpogjR838MC-3" value="Respostas registradas na planilha" style="rounded=0;whiteSpace=wrap;html=1;" vertex="1" parent="1">
          <mxGeometry x="90" y="300" width="120" height="60" as="geometry" />
        </mxCell>
        <mxCell id="3fximELfKhpogjR838MC-14" style="edgeStyle=orthogonalEdgeStyle;rounded=0;orthogonalLoop=1;jettySize=auto;html=1;" edge="1" parent="1" source="3fximELfKhpogjR838MC-4" target="3fximELfKhpogjR838MC-6">
          <mxGeometry relative="1" as="geometry" />
        </mxCell>
        <mxCell id="3fximELfKhpogjR838MC-15" style="edgeStyle=orthogonalEdgeStyle;rounded=0;orthogonalLoop=1;jettySize=auto;html=1;" edge="1" parent="1" source="3fximELfKhpogjR838MC-4" target="3fximELfKhpogjR838MC-5">
          <mxGeometry relative="1" as="geometry" />
        </mxCell>
        <mxCell id="3fximELfKhpogjR838MC-4" value="Verificação do Plano" style="rhombus;whiteSpace=wrap;html=1;" vertex="1" parent="1">
          <mxGeometry x="70" y="390" width="160" height="80" as="geometry" />
        </mxCell>
        <mxCell id="3fximELfKhpogjR838MC-17" style="edgeStyle=orthogonalEdgeStyle;rounded=0;orthogonalLoop=1;jettySize=auto;html=1;entryX=1;entryY=0.5;entryDx=0;entryDy=0;" edge="1" parent="1" source="3fximELfKhpogjR838MC-5" target="3fximELfKhpogjR838MC-8">
          <mxGeometry relative="1" as="geometry" />
        </mxCell>
        <mxCell id="3fximELfKhpogjR838MC-5" value="Define e-mail padrão" style="rounded=0;whiteSpace=wrap;html=1;" vertex="1" parent="1">
          <mxGeometry x="170" y="510" width="120" height="60" as="geometry" />
        </mxCell>
        <mxCell id="3fximELfKhpogjR838MC-16" style="edgeStyle=orthogonalEdgeStyle;rounded=0;orthogonalLoop=1;jettySize=auto;html=1;entryX=0;entryY=0.5;entryDx=0;entryDy=0;" edge="1" parent="1" source="3fximELfKhpogjR838MC-6" target="3fximELfKhpogjR838MC-8">
          <mxGeometry relative="1" as="geometry" />
        </mxCell>
        <mxCell id="3fximELfKhpogjR838MC-6" value="Define que o e-mail de confirmação incluirá sugestão" style="rounded=0;whiteSpace=wrap;html=1;" vertex="1" parent="1">
          <mxGeometry x="10" y="510" width="120" height="60" as="geometry" />
        </mxCell>
        <mxCell id="3fximELfKhpogjR838MC-7" value="Fim" style="ellipse;whiteSpace=wrap;html=1;" vertex="1" parent="1">
          <mxGeometry x="90" y="820" width="120" height="80" as="geometry" />
        </mxCell>
        <mxCell id="3fximELfKhpogjR838MC-18" style="edgeStyle=orthogonalEdgeStyle;rounded=0;orthogonalLoop=1;jettySize=auto;html=1;" edge="1" parent="1" source="3fximELfKhpogjR838MC-8" target="3fximELfKhpogjR838MC-9">
          <mxGeometry relative="1" as="geometry" />
        </mxCell>
        <mxCell id="3fximELfKhpogjR838MC-8" value="Envio do e-mail de confirmação" style="rounded=0;whiteSpace=wrap;html=1;" vertex="1" parent="1">
          <mxGeometry x="90" y="620" width="120" height="60" as="geometry" />
        </mxCell>
        <mxCell id="3fximELfKhpogjR838MC-19" style="edgeStyle=orthogonalEdgeStyle;rounded=0;orthogonalLoop=1;jettySize=auto;html=1;" edge="1" parent="1" source="3fximELfKhpogjR838MC-9" target="3fximELfKhpogjR838MC-7">
          <mxGeometry relative="1" as="geometry" />
        </mxCell>
        <mxCell id="3fximELfKhpogjR838MC-9" value="Registro do envio do e-mail" style="rounded=0;whiteSpace=wrap;html=1;" vertex="1" parent="1">
          <mxGeometry x="90" y="720" width="120" height="60" as="geometry" />
        </mxCell>
        <mxCell id="3fximELfKhpogjR838MC-10" style="edgeStyle=orthogonalEdgeStyle;rounded=0;orthogonalLoop=1;jettySize=auto;html=1;exitX=0.5;exitY=1;exitDx=0;exitDy=0;" edge="1" parent="1" source="3fximELfKhpogjR838MC-2" target="3fximELfKhpogjR838MC-2">
          <mxGeometry relative="1" as="geometry" />
        </mxCell>
      </root>
    </mxGraphModel>
  </diagram>
</mxfile>
